<svg width="87" height="98" viewBox="0 0 87 98" fill="none" xmlns="http://www.w3.org/2000/svg">
<path fill-rule="evenodd" clip-rule="evenodd" d="M43.6037 0C43.8055 0 44.0074 0 44.115 0C45.8375 1.11103 45.0247 3.43751 45.1297 5.25799C45.7407 17.7979 46.252 33.264 47.159 45.8039C56.1026 46.7142 68.8141 45.2979 79.8865 46.1064C83.0382 46.3072 86.9031 46.3072 87 48.3285C87 50.8585 80.8017 50.754 78.3687 51.0592C68.4024 52.3711 58.14 53.6882 49.3929 55.8112C48.1763 66.8332 51.2311 81.1909 49.3929 91.1983C49.296 91.806 48.8896 93.1178 47.8722 93.7255C47.6704 94.7375 47.8723 97.669 46.1444 97.9715C43.1946 98.4775 42.5889 92.1085 42.0775 89.4795C40.4519 78.9635 38.3151 67.034 37.8118 56.8232C27.9531 56.518 18.4954 56.8232 7.8239 56.8232C4.88218 56.8232 0 57.2275 0 54.5985C0.096891 52.1703 5.49048 52.1703 8.13076 51.8677C17.7876 50.5533 27.6489 49.7448 36.7943 48.3285C37.2976 41.3518 38.315 32.5572 39.1332 23.76C39.8437 15.4714 40.1506 3.84444 43.6037 0Z" fill="#F55709"/>
<path fill-rule="evenodd" clip-rule="evenodd" d="M10.0094 10.4041C10.206 10.3032 10.303 10.205 10.4079 10.0032C12.3845 9.90231 13.2785 12.2096 14.466 13.5106C22.5823 22.8354 32.4813 34.3667 40.9935 43.5932C48.2264 38.6786 57.0321 29.7547 65.948 23.4381C68.4228 21.6327 71.393 19.2271 72.6828 20.8308C74.2636 22.7372 69.5082 26.4464 67.8251 28.2519C61.0982 35.3703 54.1668 42.7914 48.8189 49.9124C54.6571 59.139 65.8458 68.3629 70.6013 77.085C70.8949 77.6877 71.393 78.9887 70.9945 79.995C71.4848 80.996 73.3696 83.1015 72.2843 84.4052C70.4047 86.6116 65.9481 82.1006 63.9636 80.2951C56.2405 73.2749 47.3298 65.4556 40.6999 57.8353C32.9794 63.6501 26.048 69.8684 17.9316 76.3867C15.6535 78.2905 12.2822 81.6014 10.6988 79.4959C9.22026 77.6904 13.2784 74.2812 15.0584 72.3748C21.5966 65.3547 28.6198 58.6372 34.6572 51.9197C30.7013 46.2032 26.145 38.7848 21.2951 31.5655C16.7441 24.7418 9.7079 15.5153 10.0094 10.4041Z" fill="#F55709"/>
</svg>
